<svg width="170" height="170" viewBox="0 0 170 170" fill="none" xmlns="http://www.w3.org/2000/svg">
<path d="M28.4415 28.8983C28.7906 28.5075 29.2099 28.1982 29.6737 27.9893C30.1375 27.7804 30.6359 27.6763 31.1383 27.6836H49.462C49.9722 27.6795 50.4782 27.7848 50.9506 27.9933C51.423 28.2017 51.8526 28.5093 52.2145 28.8983C52.5936 29.2649 52.8962 29.7145 53.1022 30.2173C53.3083 30.7201 53.413 31.2645 53.4095 31.8144V69.6161C53.3814 70.891 53.1328 72.1489 52.6766 73.3248C52.2968 74.4742 51.7045 75.528 50.9358 76.4218C50.5994 76.744 50.3265 77.1363 50.1335 77.5752C49.9405 78.0141 49.8313 78.4905 49.8125 78.9761C49.8219 79.4811 49.9263 79.9787 50.1194 80.4386C50.3126 80.8985 50.5904 81.311 50.9358 81.651C51.7203 82.4849 52.3161 83.5035 52.6766 84.6274C53.1324 85.8035 53.381 87.0613 53.4095 88.3361V127.598C53.413 128.148 53.3083 128.692 53.1022 129.195C52.8962 129.698 52.5936 130.147 52.2145 130.514C51.8526 130.903 51.423 131.211 50.9506 131.419C50.4782 131.628 49.9722 131.733 49.462 131.729H41.7063C40.6742 131.693 39.6684 132.084 38.894 132.823C38.536 133.152 38.2497 133.562 38.0555 134.024C37.8613 134.487 37.764 134.99 37.7707 135.498C37.7756 136.005 37.6776 136.508 37.4836 136.97C37.2895 137.432 37.004 137.843 36.6473 138.173C35.8794 138.906 34.883 139.297 33.859 139.267H31.1383C30.6297 139.27 30.1263 139.157 29.6613 138.934C29.1964 138.712 28.7806 138.384 28.4415 137.975C28.0818 137.583 27.7973 137.119 27.6045 136.608C27.4117 136.097 27.3144 135.55 27.3182 134.998V31.8144C27.3115 31.2712 27.4077 30.7322 27.6009 30.2307C27.794 29.7292 28.0801 29.2757 28.4415 28.8983ZM38.5036 72.403C38.9896 73.2171 39.5712 73.6177 40.2444 73.6177C40.6492 73.6171 41.0472 73.5054 41.4012 73.2929C41.7551 73.0804 42.0534 72.7742 42.2679 72.403C42.8198 71.5054 43.0984 70.4436 43.0646 69.3663V43.0912C43.0942 42.0212 42.8158 40.9676 42.2679 40.076C42.0518 39.7037 41.7515 39.3972 41.3953 39.1854C41.0391 38.9736 40.6389 38.8636 40.2324 38.8656C39.5592 38.8656 38.9776 39.2964 38.4917 40.1578C37.991 41.0546 37.7368 42.087 37.7587 43.1343V69.4094C37.7315 70.4672 37.9904 71.5106 38.5036 72.4116V72.403ZM42.2679 86.079C42.0468 85.719 41.7457 85.4246 41.3922 85.223C41.0387 85.0213 40.644 84.9187 40.2444 84.9246C39.5725 84.9246 38.9922 85.3295 38.5036 86.1393C37.9983 87.0117 37.7433 88.0264 37.7707 89.0554V116.3C37.7482 117.348 38.0024 118.382 38.5036 119.28C38.9896 120.142 39.5712 120.598 40.2444 120.676C40.6492 120.675 41.0472 120.564 41.4012 120.351C41.7551 120.139 42.0534 119.833 42.2679 119.461C42.8198 118.564 43.0984 117.502 43.0646 116.425V89.0726C43.1048 88.0106 42.8253 86.9632 42.2679 86.0876V86.079ZM69.5822 32.4218C70.4134 33.0194 71.3969 33.3207 72.3945 33.2832H98.4739C99.4857 33.2878 100.455 33.7244 101.17 34.4981C101.886 35.2718 102.29 36.3199 102.294 37.414V40.2095C102.308 40.7725 102.216 41.3326 102.023 41.8556C101.83 42.3785 101.54 42.8532 101.171 43.2506C100.822 43.6413 100.402 43.9507 99.9385 44.1596C99.4747 44.3685 98.9762 44.4725 98.4739 44.4652H72.3945C71.8744 44.4511 71.3571 44.5513 70.8739 44.7599C70.3908 44.9685 69.9519 45.281 69.5838 45.6786C69.2158 46.0762 68.9263 46.5505 68.7329 47.0727C68.5395 47.595 68.4463 48.1543 68.4589 48.7166V64.3999C68.4286 65.4971 68.7684 66.5687 69.4149 67.415C69.7058 67.8032 70.0749 68.1143 70.4939 68.3248C70.9129 68.5353 71.3709 68.6396 71.8328 68.6297C72.2766 68.6292 72.7145 68.5196 73.1134 68.3092C73.5123 68.0987 73.8617 67.793 74.1352 67.415C74.7817 66.5687 75.1215 65.4971 75.0912 64.3999V60.6309C75.0842 60.0531 75.1866 59.4799 75.3921 58.9466C75.5976 58.4132 75.9019 57.931 76.2863 57.5296C76.6398 57.1221 77.0668 56.7972 77.5408 56.575C78.0149 56.3527 78.5261 56.2378 79.0428 56.2374H81.5125C82.0447 56.2345 82.5722 56.3457 83.0644 56.5647C83.5566 56.7836 84.0038 57.1058 84.3801 57.5128C84.7565 57.9197 85.0545 58.4033 85.2569 58.9356C85.4594 59.4678 85.5623 60.0382 85.5596 60.6137V64.3826C85.5476 64.9449 85.6413 65.5039 85.8348 66.0258C86.0284 66.5478 86.3179 67.0218 86.6859 67.4193C87.0538 67.8167 87.4925 68.1293 87.9754 68.3381C88.4583 68.5469 88.9753 68.6476 89.4952 68.634H98.4898C98.9983 68.6303 99.5018 68.7436 99.9668 68.9663C100.432 69.1891 100.848 69.5164 101.187 69.9263C101.546 70.3176 101.831 70.7821 102.024 71.293C102.216 71.8038 102.314 72.3509 102.31 72.9027V75.8102C102.307 76.9051 101.903 77.9542 101.188 78.7288C100.472 79.5035 99.5023 79.9407 98.4898 79.9453H89.4793C88.9594 79.9317 88.4423 80.0324 87.9594 80.2412C87.4766 80.45 87.0379 80.7626 86.6699 81.16C86.302 81.5575 86.0125 82.0315 85.8189 82.5535C85.6253 83.0754 85.5317 83.6344 85.5437 84.1967V135.024C85.5441 135.582 85.4382 136.135 85.2327 136.647C85.0271 137.159 84.7262 137.62 84.3487 138C83.9783 138.417 83.5325 138.747 83.0391 138.969C82.5456 139.192 82.0151 139.302 81.4806 139.293H73.952C73.5258 139.281 73.1087 139.157 72.7367 138.932C72.3647 138.707 72.049 138.387 71.8169 138C71.2135 137.147 70.8961 136.098 70.9166 135.024V132.237C70.8837 131.191 71.0759 130.152 71.4783 129.2C71.8527 128.388 72.34 127.981 72.9402 127.981C73.5404 127.981 74.0463 127.576 74.4579 126.767C74.8966 125.827 75.109 124.782 75.0753 123.73V84.201C75.0829 83.6359 74.9804 83.0753 74.7746 82.5559C74.5687 82.0364 74.264 81.5696 73.8803 81.1858C73.5175 80.7969 73.0872 80.4894 72.6142 80.2809C72.1411 80.0724 71.6346 79.9672 71.1238 79.9711H61.938C61.418 79.9865 60.9007 79.8867 60.4177 79.6778C59.9347 79.4689 59.4964 79.1554 59.1297 78.7564C58.7678 78.3785 58.4815 77.9244 58.2882 77.4221C58.095 76.9198 57.9991 76.38 58.0064 75.836V48.708C58.0255 47.6907 57.9115 46.6756 57.6678 45.6929C57.4447 44.8831 57.142 44.4782 56.7675 44.4782C56.4688 44.4782 56.2059 44.0733 55.9709 43.2635C55.7233 42.2727 55.6093 41.2485 55.6323 40.2225V37.4054C55.6136 36.4208 55.7276 35.4384 55.9709 34.4893C56.1939 33.6795 56.4568 33.2746 56.7675 33.2746C57.142 33.2746 57.4447 32.9903 57.6678 32.4131C57.9012 31.7971 58.0164 31.1362 58.0064 30.4705C58.0136 30.0586 58.1212 29.656 58.3185 29.3036C58.5157 28.9511 58.7956 28.6612 59.1297 28.4633C59.9746 27.9097 60.9508 27.6356 61.938 27.675H64.6388C65.5852 27.6519 66.5171 27.9289 67.3196 28.4719C67.6537 28.6698 67.9336 28.9597 68.1309 29.3122C68.3281 29.6647 68.4358 30.0672 68.4429 30.4791C68.4589 31.2071 68.8333 31.8747 69.5822 32.4218ZM61.2648 85.6612C61.6292 85.2649 62.0643 84.9529 62.5436 84.7441C63.023 84.5353 63.5366 84.434 64.0532 84.4465H65.5151C66.0358 84.4305 66.5539 84.53 67.0376 84.7389C67.5213 84.9478 67.9602 85.2617 68.3274 85.6612C68.6888 86.0386 68.9749 86.492 69.1681 86.9936C69.3613 87.4951 69.4575 88.034 69.4507 88.5773V135.011C69.483 136.127 69.1213 137.214 68.4389 138.052C68.116 138.446 67.7173 138.759 67.2707 138.969C66.8241 139.179 66.3405 139.28 65.8537 139.267H59.6914C59.2933 139.271 58.9015 139.16 58.5558 138.947C58.2101 138.733 57.9229 138.425 57.7236 138.052C57.2121 137.137 56.9588 136.08 56.9946 135.011V132.237C56.9631 131.198 57.1355 130.163 57.5005 129.2C57.8351 128.386 58.1896 127.981 58.5681 127.981C59.0169 127.981 59.3913 127.576 59.6914 126.767C60.0214 125.788 60.1769 124.75 60.1495 123.708V88.5773C60.1417 88.0347 60.2366 87.4961 60.4285 86.9946C60.6203 86.4931 60.9049 86.0393 61.2648 85.6612V85.6612ZM98.0237 85.6612C98.3851 86.0386 98.6712 86.492 98.8644 86.9936C99.0576 87.4951 99.1538 88.034 99.147 88.5773V123.708C99.1159 124.748 99.2883 125.783 99.6529 126.745C99.9915 127.555 100.382 127.96 100.848 127.96C101.222 127.96 101.561 128.365 101.86 129.179C102.182 130.159 102.329 131.197 102.294 132.237V135.033C102.311 136.089 102.033 137.126 101.497 138.009C100.966 138.87 100.403 139.301 99.8083 139.301H93.4149C92.9314 139.3 92.4542 139.183 92.017 138.96C91.5799 138.737 91.1936 138.412 90.8855 138.009C90.1902 137.201 89.8081 136.136 89.8179 135.033V88.5773C89.8144 88.0274 89.9192 87.483 90.1252 86.9802C90.3313 86.4774 90.6339 86.0278 91.0129 85.6612C91.3933 85.2642 91.8425 84.9524 92.3347 84.744C92.8269 84.5355 93.3525 84.4344 93.881 84.4465H95.3389C95.8392 84.4415 96.3352 84.5466 96.7968 84.7554C97.2583 84.9642 97.6758 85.2724 98.0237 85.6612V85.6612Z" fill="#021923"/>
<path d="M113.965 138.883C113.624 139.086 113.243 139.201 112.854 139.219C112.708 139.209 112.567 139.157 112.446 139.068C112.325 138.98 112.228 138.858 112.165 138.715C111.969 138.36 111.869 137.953 111.878 137.539V136.484C111.867 136.075 111.927 135.667 112.057 135.282C112.173 134.959 112.308 134.8 112.456 134.8C112.558 134.799 112.659 134.768 112.745 134.708C112.832 134.649 112.901 134.564 112.946 134.464C113.071 134.198 113.131 133.901 113.121 133.602V109.248C113.131 108.841 113.072 108.435 112.946 108.051C112.826 107.728 112.663 107.569 112.456 107.569C112.249 107.569 112.173 107.409 112.057 107.086C111.928 106.703 111.867 106.297 111.878 105.889V104.734C111.881 104.302 112.041 103.889 112.324 103.584C112.606 103.278 112.988 103.105 113.388 103.102H115.742C116.142 103.104 116.525 103.277 116.807 103.582C117.09 103.888 117.25 104.302 117.252 104.734V128.459C117.266 128.976 117.38 129.484 117.586 129.95C117.785 130.451 118.046 130.921 118.363 131.345L120.494 133.551C120.854 133.928 121.276 134.23 121.737 134.442C122.183 134.667 122.667 134.789 123.159 134.8H139.993C140.391 134.794 140.774 134.958 141.061 135.257C141.206 135.408 141.321 135.591 141.397 135.794C141.473 135.996 141.509 136.214 141.503 136.432V137.539C141.504 137.757 141.466 137.973 141.39 138.175C141.314 138.377 141.202 138.561 141.061 138.715C140.926 138.876 140.761 139.004 140.577 139.091C140.393 139.178 140.194 139.222 139.993 139.219H121.916C121.435 139.204 120.96 139.09 120.518 138.883C120.055 138.695 119.626 138.419 119.251 138.069L118.232 137.057C118.087 136.894 117.913 136.765 117.721 136.677C117.528 136.589 117.321 136.544 117.112 136.544C116.897 136.543 116.683 136.589 116.485 136.679C116.286 136.77 116.107 136.902 115.957 137.07L115.069 138.03C114.746 138.377 114.373 138.665 113.965 138.883V138.883ZM112.499 98.3465C112.503 97.8853 112.662 97.4413 112.946 97.0973L113.698 96.3306C113.844 96.1725 114.017 96.0481 114.208 95.9651C114.399 95.8822 114.604 95.8424 114.81 95.8482C115.01 95.8401 115.208 95.8791 115.393 95.9624C115.577 96.0457 115.742 96.1713 115.877 96.3306L116.586 97.0973C116.747 97.2545 116.874 97.4476 116.959 97.6634C117.044 97.8791 117.084 98.1122 117.076 98.3465C117.078 98.5659 117.034 98.7829 116.95 98.9824C116.865 99.1818 116.741 99.3588 116.586 99.5008L115.877 100.268C115.75 100.44 115.587 100.577 115.402 100.669C115.216 100.761 115.014 100.805 114.81 100.797C114.601 100.796 114.395 100.748 114.204 100.657C114.012 100.565 113.841 100.433 113.698 100.268L112.946 99.5008C112.674 99.1863 112.515 98.7766 112.499 98.3465ZM141.061 99.0658C140.923 99.2214 140.757 99.3445 140.573 99.4275C140.39 99.5105 140.192 99.5516 139.993 99.5482H121.251C121.049 99.55 120.849 99.5083 120.662 99.4255C120.476 99.3426 120.306 99.2204 120.164 99.0658C120.012 98.9131 119.892 98.7275 119.812 98.5211C119.732 98.3147 119.693 98.0922 119.697 97.8683V96.7613C119.695 96.5449 119.736 96.3304 119.816 96.1322C119.897 95.9339 120.015 95.7564 120.164 95.6113C120.306 95.4567 120.476 95.3344 120.662 95.2516C120.849 95.1688 121.049 95.127 121.251 95.1288H139.993C140.393 95.1311 140.776 95.3038 141.058 95.6095C141.341 95.9152 141.501 96.3291 141.503 96.7613V97.8683C141.509 98.0907 141.473 98.312 141.397 98.5187C141.321 98.7254 141.206 98.9131 141.061 99.0701V99.0658ZM138.017 113.069C137.869 113.22 137.752 113.403 137.672 113.605C137.591 113.807 137.55 114.025 137.551 114.245V125.776C137.547 126.003 137.587 126.229 137.667 126.44C137.747 126.65 137.866 126.841 138.017 126.999C138.157 127.16 138.325 127.288 138.512 127.375C138.699 127.462 138.901 127.507 139.105 127.508H139.993C140.192 127.504 140.389 127.545 140.572 127.627C140.756 127.71 140.922 127.831 141.061 127.986C141.206 128.143 141.321 128.33 141.397 128.537C141.473 128.744 141.509 128.965 141.503 129.187V130.243C141.504 130.461 141.466 130.677 141.39 130.878C141.314 131.08 141.202 131.264 141.061 131.419C140.926 131.579 140.761 131.707 140.577 131.794C140.393 131.881 140.194 131.925 139.993 131.923H138.26C137.772 131.912 137.29 131.798 136.842 131.587C136.397 131.407 136 131.111 135.687 130.725L134.532 129.571C134.205 129.167 133.949 128.703 133.775 128.201C133.584 127.723 133.479 127.21 133.464 126.689V114.245C133.454 113.803 133.287 113.382 132.998 113.069C132.709 112.757 132.319 112.576 131.911 112.565H129.333C129.126 112.56 128.92 112.602 128.728 112.689C128.537 112.776 128.364 112.905 128.222 113.069C128.08 113.224 127.968 113.408 127.892 113.609C127.817 113.811 127.778 114.027 127.78 114.245V126.685C127.743 127.758 127.35 128.781 126.672 129.566L125.609 130.721C125.284 131.112 124.873 131.409 124.414 131.582C123.957 131.792 123.468 131.906 122.972 131.918H121.239C120.83 131.907 120.441 131.727 120.152 131.414C119.863 131.101 119.696 130.681 119.686 130.238V129.183C119.68 128.959 119.719 128.735 119.799 128.528C119.879 128.321 120 128.134 120.152 127.981C120.295 127.828 120.465 127.707 120.651 127.625C120.838 127.543 121.038 127.502 121.239 127.503H122.127C122.328 127.505 122.526 127.46 122.71 127.372C122.893 127.285 123.057 127.156 123.191 126.995C123.337 126.834 123.452 126.642 123.528 126.432C123.605 126.222 123.642 125.997 123.637 125.772V114.245C123.639 114.027 123.6 113.81 123.524 113.608C123.447 113.407 123.334 113.223 123.191 113.069C123.057 112.909 122.893 112.781 122.709 112.694C122.526 112.607 122.328 112.563 122.127 112.565H121.239C120.83 112.554 120.44 112.373 120.15 112.06C119.861 111.746 119.695 111.324 119.686 110.881V109.839C119.681 109.614 119.72 109.391 119.8 109.184C119.88 108.977 120 108.79 120.152 108.637C120.295 108.484 120.465 108.363 120.651 108.28C120.838 108.198 121.038 108.157 121.239 108.159H139.981C140.18 108.156 140.377 108.196 140.56 108.279C140.744 108.361 140.91 108.483 141.049 108.637C141.194 108.794 141.307 108.982 141.383 109.189C141.459 109.395 141.496 109.616 141.491 109.839V110.894C141.493 111.112 141.454 111.329 141.379 111.532C141.303 111.734 141.191 111.919 141.049 112.074C140.914 112.235 140.749 112.363 140.565 112.45C140.381 112.537 140.182 112.58 139.981 112.578H139.093C138.892 112.577 138.693 112.621 138.509 112.705C138.324 112.789 138.157 112.913 138.017 113.069V113.069Z" fill="#021923"/>
<path d="M138.288 44.4179C138.134 44.2789 138.011 44.104 137.928 43.9064C137.845 43.7087 137.805 43.4933 137.81 43.2764C137.809 43.0632 137.768 42.8524 137.689 42.6569C137.61 42.4614 137.496 42.2853 137.352 42.1392C137.202 41.9762 137.023 41.8482 136.826 41.763C136.629 41.6778 136.417 41.6372 136.205 41.6439H117.415C117.203 41.6372 116.991 41.6778 116.794 41.763C116.597 41.8482 116.418 41.9762 116.268 42.1392C116.124 42.2853 116.009 42.4614 115.931 42.6569C115.852 42.8524 115.811 43.0632 115.81 43.2764C115.816 43.4914 115.778 43.7052 115.699 43.9025C115.62 44.0999 115.501 44.2758 115.352 44.4179C115.035 44.7134 114.626 44.8674 114.208 44.8486H113.129C112.716 44.8475 112.32 44.6698 112.027 44.3543C111.735 44.0388 111.569 43.6111 111.567 43.1644V38.8182C111.568 38.3567 111.732 37.9129 112.025 37.5777C112.163 37.4076 112.332 37.2718 112.523 37.1796C112.713 37.0874 112.92 37.041 113.129 37.0436H140.487C140.701 37.0379 140.914 37.0809 141.111 37.17C141.309 37.259 141.487 37.3921 141.634 37.5605C141.935 37.9009 142.1 38.356 142.092 38.8269V43.1859C142.095 43.4074 142.056 43.6271 141.977 43.8316C141.898 44.036 141.781 44.2209 141.634 44.3748C141.484 44.5378 141.305 44.6659 141.108 44.7511C140.911 44.8363 140.699 44.8768 140.487 44.8701H139.459C139.031 44.88 138.614 44.719 138.288 44.4179ZM119.865 73.3851C119.332 73.5235 118.787 73.5972 118.24 73.6048H113.129C112.922 73.6073 112.716 73.5626 112.526 73.4735C112.336 73.3845 112.165 73.2531 112.025 73.0879C111.731 72.7641 111.566 72.3276 111.567 71.8732V70.7317C111.562 70.5022 111.6 70.2739 111.679 70.0607C111.758 69.8475 111.875 69.6537 112.025 69.4912C112.169 69.3322 112.341 69.2063 112.53 69.1212C112.72 69.036 112.924 68.9934 113.129 68.9959H116.152C116.688 68.9884 117.222 68.922 117.746 68.7977C118.25 68.7009 118.737 68.5177 119.188 68.255L120.299 67.6261C120.697 67.428 120.893 67.1954 120.893 66.9326C120.879 66.7434 120.817 66.5622 120.712 66.4103C120.606 66.2585 120.463 66.1423 120.299 66.0754L115.439 63.3962C115.017 63.1403 114.668 62.7631 114.431 62.3065C114.18 61.8766 114.042 61.3806 114.033 60.8721V57.8569C114.048 57.4133 113.926 56.977 113.687 56.6164C113.593 56.4651 113.467 56.3408 113.319 56.2545C113.171 56.1681 113.006 56.1223 112.838 56.121C112.668 56.1178 112.503 56.0659 112.358 55.9705C112.213 55.8751 112.094 55.7398 112.014 55.5783C111.796 55.189 111.685 54.7408 111.695 54.2861V53.1963C111.678 52.765 111.79 52.3392 112.014 51.9816C112.105 51.8363 112.228 51.7175 112.372 51.6357C112.515 51.5538 112.676 51.5114 112.838 51.5121C113.011 51.5086 113.18 51.4568 113.328 51.3617C113.477 51.2666 113.601 51.1314 113.687 50.9694C113.913 50.6198 114.034 50.2031 114.033 49.7763V49.535C114.033 49.3081 114.075 49.0835 114.157 48.8747C114.239 48.6659 114.36 48.4773 114.511 48.3204C114.663 48.1515 114.845 48.0182 115.047 47.9285C115.248 47.8389 115.464 47.7949 115.682 47.7992H116.69C116.897 47.798 117.102 47.8438 117.291 47.9336C117.48 48.0234 117.65 48.1551 117.789 48.3204C118.084 48.6441 118.249 49.0807 118.248 49.535V49.7806C118.252 50.0062 118.3 50.2284 118.387 50.4336C118.474 50.6387 118.598 50.8225 118.753 50.9737C118.9 51.1427 119.077 51.2779 119.274 51.3712C119.47 51.4645 119.682 51.5139 119.897 51.5164H133.444C133.663 51.52 133.88 51.4735 134.081 51.38C134.283 51.2865 134.463 51.148 134.611 50.9737C134.76 50.8189 134.88 50.6339 134.962 50.4291C135.045 50.2244 135.09 50.004 135.093 49.7806V49.436C135.084 49.2136 135.121 48.9918 135.2 48.7863C135.279 48.5809 135.399 48.3968 135.551 48.2471C135.87 47.9517 136.28 47.7978 136.699 47.8164H137.707C138.129 47.815 138.536 47.9839 138.85 48.2902C139.01 48.4301 139.139 48.6075 139.226 48.8089C139.314 49.0103 139.358 49.2306 139.356 49.4532V49.7978C139.358 50.2331 139.499 50.6543 139.754 50.9909C139.859 51.1566 139.999 51.2925 140.162 51.387C140.326 51.4815 140.509 51.5318 140.694 51.5337C140.882 51.5307 141.068 51.5737 141.238 51.6595C141.409 51.7453 141.559 51.8716 141.678 52.029C141.941 52.3594 142.082 52.7823 142.076 53.2179V54.2732C142.088 54.7412 141.947 55.1987 141.678 55.5654C141.569 55.7312 141.425 55.8668 141.258 55.9611C141.091 56.0555 140.906 56.1058 140.718 56.1081C140.533 56.1043 140.349 56.147 140.182 56.233C140.015 56.3189 139.868 56.4458 139.754 56.6035C139.501 56.9579 139.372 57.3969 139.388 57.844V60.8592C139.371 61.372 139.22 61.8693 138.953 62.2935C138.702 62.7472 138.347 63.1227 137.922 63.3833L133.201 66.0108C132.835 66.2434 132.652 66.5062 132.652 66.8034C132.652 67.1006 132.847 67.3677 133.245 67.5959L134.484 68.2421C134.935 68.5048 135.422 68.688 135.926 68.7848C136.449 68.9091 136.983 68.9755 137.519 68.9829H140.499C140.709 68.9788 140.918 69.0206 141.113 69.1058C141.308 69.1909 141.485 69.3177 141.634 69.4785C141.783 69.6393 141.9 69.8309 141.979 70.0417C142.057 70.2526 142.096 70.4785 142.092 70.7059V71.8474C142.094 72.3017 141.929 72.7383 141.634 73.062C141.487 73.2304 141.309 73.3635 141.111 73.4525C140.914 73.5416 140.701 73.5847 140.487 73.5789H135.332C134.807 73.5696 134.285 73.4959 133.775 73.3592C133.272 73.2432 132.793 73.0333 132.357 72.739L128.186 70.5078C127.738 70.2391 127.233 70.1024 126.72 70.1115C126.237 70.1105 125.761 70.2472 125.342 70.5078L121.311 72.739C120.868 73.0451 120.378 73.2639 119.865 73.3851ZM126.72 63.7925C127.223 63.8084 127.723 63.7071 128.186 63.4953L133.592 60.674C134.028 60.3998 134.398 60.0174 134.671 59.5584C134.941 59.1437 135.092 58.6523 135.105 58.1455V57.8483C135.111 57.6165 135.07 57.386 134.987 57.1722C134.904 56.9583 134.78 56.766 134.623 56.6078C134.468 56.4463 134.286 56.3195 134.085 56.2345C133.885 56.1495 133.671 56.108 133.456 56.1124H119.901C119.686 56.108 119.472 56.1495 119.272 56.2345C119.071 56.3195 118.888 56.4463 118.734 56.6078C118.577 56.766 118.453 56.9583 118.37 57.1722C118.286 57.386 118.246 57.6165 118.252 57.8483V58.1498C118.265 58.6566 118.416 59.148 118.686 59.5627C118.959 60.0217 119.329 60.4041 119.765 60.6783L125.262 63.4996C125.727 63.6967 126.221 63.7961 126.72 63.7925V63.7925Z" fill="#021923"/>
<path d="M155.09 170H14.9099C10.9568 169.995 7.1669 168.295 4.37167 165.273C1.57643 162.25 0.00421772 158.152 0 153.877L0 16.1226C0.00421772 11.848 1.57643 7.74982 4.37167 4.72723C7.1669 1.70465 10.9568 0.00456077 14.9099 0L155.09 0C159.043 0.00456077 162.833 1.70465 165.628 4.72723C168.424 7.74982 169.996 11.848 170 16.1226V153.877C169.996 158.152 168.424 162.25 165.628 165.273C162.833 168.295 159.043 169.995 155.09 170V170ZM14.9099 8.24866C12.9793 8.25094 11.1284 9.08125 9.76331 10.5574C8.39819 12.0336 7.63034 14.035 7.62823 16.1226V153.877C7.63034 155.965 8.39819 157.966 9.76331 159.443C11.1284 160.919 12.9793 161.749 14.9099 161.751H155.09C157.021 161.749 158.872 160.919 160.237 159.443C161.602 157.966 162.37 155.965 162.372 153.877V16.1226C162.37 14.035 161.602 12.0336 160.237 10.5574C158.872 9.08125 157.021 8.25094 155.09 8.24866H14.9099Z" fill="#021923"/>
<path d="M122.291 31.2932L129.405 34.5367C129.768 34.7056 130.177 34.7175 130.547 34.57C130.918 34.4226 131.222 34.127 131.397 33.7441C131.6 33.3134 131.795 32.8568 131.99 32.4046C132.066 32.2258 132.108 32.0322 132.114 31.8355C132.119 31.6388 132.088 31.4429 132.022 31.2596C131.955 31.0762 131.856 30.9092 131.729 30.7684C131.601 30.6277 131.449 30.5161 131.281 30.4404L123.912 27.0935C123.53 26.9205 123.1 26.9186 122.717 27.0882C122.334 27.2579 122.029 27.5851 121.868 27.9981L121.442 29.0922C121.285 29.5058 121.287 29.9697 121.446 30.3824C121.605 30.795 121.909 31.1225 122.291 31.2932Z" fill="#021923"/>
</svg>
